Coordinates
version=1
nRows=14
nColumns=40
inDegrees=yes

Units are S.I. units (second, meters, Newtons, ...)
Angles are in degrees.

endheader
time	pelvis_tilt	pelvis_list	pelvis_rotation	pelvis_tx	pelvis_ty	pelvis_tz	hip_flexion_r	hip_adduction_r	hip_rotation_r	knee_angle_r	knee_angle_r_beta	ankle_angle_r	subtalar_angle_r	mtp_angle_r	hip_flexion_l	hip_adduction_l	hip_rotation_l	knee_angle_l	knee_angle_l_beta	ankle_angle_l	subtalar_angle_l	mtp_angle_l	lumbar_extension	lumbar_bending	lumbar_rotation	arm_flex_r	arm_add_r	arm_rot_r	elbow_flex_r	pro_sup_r	wrist_flex_r	wrist_dev_r	arm_flex_l	arm_add_l	arm_rot_l	elbow_flex_l	pro_sup_l	wrist_flex_l	wrist_dev_l
      0.31000000	     -3.72188623	     -2.33633362	      6.36333422	     -0.54356848	      0.87167511	      1.45128234	     29.86663895	     -1.77627651	    -13.05962329	    -30.80990269	     -0.53773424	      0.96179039	    -12.85328912	     12.57165544	     -3.80555152	      5.36500292	      0.25552447	    -42.27366439	     -0.73781463	    -21.32337762	      7.83702154	     -3.65678328	     -1.59715295	      1.98007448	    -13.76050432	    -10.44405359	     -7.92858610	    -18.49387852	     18.31064077	     89.95437384	      0.00000000	      0.00000000	     -1.78248329	     13.48739323	     15.74214635	     66.26240723	     89.95437384	      0.00000000	      0.00000000
      0.32000000	     -3.99812824	     -2.56166373	      6.21884384	     -0.52944520	      0.87274584	      1.45376986	     29.17935902	     -1.16211799	    -12.97150943	    -30.80697771	     -0.53768319	      1.71553796	    -12.86323558	     12.46538547	     -1.81664689	      5.58376889	     -0.28386851	    -45.30887892	     -0.79078912	    -24.13490645	      9.39965773	     -2.90828418	     -1.10248994	      2.23868856	    -13.32551695	    -10.20467050	     -7.93496879	    -18.10208265	     18.70119252	     89.95437384	      0.00000000	      0.00000000	     -2.30951018	     13.26904537	     15.60511784	     64.93117115	     89.95437384	      0.00000000	      0.00000000
      0.33000000	     -4.21975528	     -2.69205689	      5.81282891	     -0.51530171	      0.87390419	      1.45647921	     28.40889411	     -0.59600586	    -12.91803044	    -30.73620038	     -0.53644790	      2.55566781	    -12.54641091	     12.29335875	      0.09496776	      5.66785700	     -0.54136573	    -48.28962787	     -0.84281300	    -26.30631395	     10.86834125	     -2.02800709	     -0.70625705	      2.40513212	    -12.55842017	     -9.96395492	     -7.95334176	    -17.69069462	     19.17169220	     89.95437384	      0.00000000	      0.00000000	     -2.84545590	     13.00135321	     15.48649675	     63.63471326	     89.95437384	      0.00000000	      0.00000000
      0.34000000	     -4.32211706	     -2.80348006	      5.67772937	     -0.50209891	      0.87530897	      1.45841602	     27.47657864	     -0.22951765	    -13.05176998	    -30.62371319	     -0.53448462	      3.43326658	    -12.15433667	     11.97151115	      2.12462859	      5.68578855	     -0.90446862	    -51.36686108	     -0.89652085	    -27.30448391	     12.17411247	     -1.42306029	     -0.56491072	      2.60835876	    -12.02542271	     -9.50668015	     -7.98106857	    -17.31953206	     19.61524356	     89.95437384	      0.00000000	      0.00000000	     -3.07750638	     12.70326742	     15.30302640	     61.97417235	     89.95437384	      0.00000000	      0.00000000
      0.35000000	     -4.56643921	     -2.95366861	      5.46052064	     -0.48888773	      0.87633629	      1.46044105	     26.63340625	      0.12820260	    -13.48559151	    -30.35622013	     -0.52981599	      4.30310647	    -11.60429452	     11.61802732	      4.31036076	      5.80948956	     -0.82169596	    -54.45332800	     -0.95038986	    -26.43573821	     14.16647622	     -0.75292417	     -0.26576810	      2.83048928	    -11.37369007	     -9.19294147	     -8.04391897	    -16.86964592	     20.36127730	     89.95437384	      0.00000000	      0.00000000	     -3.37545742	     12.32414191	     15.22071957	     60.34668336	     89.95437384	      0.00000000	      0.00000000
      0.36000000	     -4.74384192	     -2.89847228	      5.26754192	     -0.47591867	      0.87752863	      1.46222048	     25.66676211	      0.24221648	    -13.89732489	    -30.01646319	     -0.52388611	      5.04352236	    -10.90392861	     11.22396840	      6.39487207	      5.72609932	     -0.57992171	    -57.24241175	     -0.99906856	    -24.87159883	     15.89725314	     -0.14674015	     -0.10145109	      2.82632484	    -10.73056269	     -8.80963565	     -8.09692190	    -16.42507216	     21.12587730	     89.95437384	      0.00000000	      0.00000000	     -3.59051597	     11.92783165	     15.24670291	     58.61427089	     89.95437384	      0.00000000	      0.00000000
      0.37000000	     -4.97403654	     -2.66926413	      5.04348887	     -0.46290549	      0.87861027	      1.46375669	     24.87106358	      0.02408382	    -14.50721899	    -29.91654613	     -0.52214223	      5.82720764	     -9.61512919	      9.84577694	      8.70321177	      5.45824296	     -0.03846624	    -60.13722316	     -1.04959255	    -21.30365505	     16.18249359	     15.85459444	      0.11768494	      2.63726059	    -10.13810953	     -8.38113271	     -8.19358441	    -15.79548432	     21.89165793	     89.95437384	      0.00000000	      0.00000000	     -3.97561244	     11.55032629	     15.34812374	     56.91762840	     89.95437384	      0.00000000	      0.00000000
      0.38000000	     -4.81316168	     -2.57983805	      4.71889308	     -0.44956699	      0.88043287	      1.46564428	     23.47336890	      0.24037035	    -14.49725266	    -29.50292557	     -0.51492319	      6.49192523	     -9.12257303	      9.53230336	     10.30087997	      5.52564575	      0.60398234	    -62.16978018	     -1.08506736	    -19.66742200	     17.26323060	     15.59888266	     -0.04116488	      2.61767293	     -9.35444449	     -7.83608676	     -8.26519206	    -15.46573837	     22.56346190	     89.95437384	      0.00000000	      0.00000000	     -4.06972255	     11.11686234	     15.45102764	     54.74700910	     89.95437384	      0.00000000	      0.00000000
      0.39000000	     -4.76636841	     -2.53271207	      4.39761356	     -0.43652039	      0.88185472	      1.46762248	     22.22954667	      0.50799557	    -14.38951525	    -29.01834759	     -0.50646571	      7.07215996	     -8.50337245	      9.17213412	     12.10613599	      5.63492087	      1.23817557	    -64.11441890	     -1.11900771	    -17.73163084	     18.03415077	     15.42049995	     -0.12518983	      2.60288858	     -8.57747711	     -7.38133770	     -8.34920762	    -15.04274424	     23.52564278	     89.95437384	      0.00000000	      0.00000000	     -4.28102301	     10.74698096	     15.50483733	     52.80438118	     89.95437384	      0.00000000	      0.00000000
      0.40000000	     -4.70814227	     -2.41203359	      4.02232380	     -0.42331080	      0.88324398	      1.46954087	     21.00119891	      0.69302933	    -14.28583465	    -28.57535975	     -0.49873411	      7.72385266	     -8.03405871	      8.81854190	     13.80461079	      5.64335853	      1.87857507	    -65.70912792	     -1.14684063	    -15.63591460	     18.43089827	     15.31853829	     -0.19134071	      2.51752185	     -7.75109252	     -6.91044730	     -8.47963561	    -14.55360540	     24.45885543	     89.95437384	      0.00000000	      0.00000000	     -4.47834116	     10.34889837	     15.70615644	     50.73677795	     89.95437384	      0.00000000	      0.00000000
      0.41000000	     -4.64363436	     -2.57702778	      3.50499898	     -0.41026577	      0.88455500	      1.47194037	     19.83813077	      1.36993339	    -13.62426572	    -28.16281725	     -0.49153389	      7.66865928	     -8.46884227	      7.51157329	     15.58242494	      6.09037003	      2.70359781	    -67.25108320	     -1.17375283	    -12.54203145	     18.43144151	     21.02617890	     -0.29186029	      2.71788985	     -6.88784534	     -6.42256027	     -8.67163008	    -13.81524267	     25.56212106	     89.95437384	      0.00000000	      0.00000000	     -4.87403843	     10.00684576	     15.87434806	     48.96218259	     89.95437384	      0.00000000	      0.00000000
      0.42000000	     -4.57038074	     -2.37008713	      2.91948205	     -0.39738601	      0.88599312	      1.47400507	     18.65180829	      1.50469674	    -13.19548533	    -27.77516797	     -0.48476813	      8.13953737	     -7.95361360	      7.18264514	     17.15935944	      5.98146363	      3.48283723	    -68.19192391	     -1.19017360	    -10.30132999	     18.57284072	     20.62330309	     -0.45081803	      2.52955544	     -5.94216035	     -5.79788284	     -8.80330285	    -13.41111866	     26.49013487	     89.95437384	      0.00000000	      0.00000000	     -5.09515301	      9.60863571	     16.26792780	     46.93647420	     89.95437384	      0.00000000	      0.00000000
      0.43000000	     -4.54173883	     -2.13517474	      2.40050087	     -0.38438606	      0.88728182	      1.47576807	     17.40458267	      1.57473199	    -12.91283516	    -27.18506524	     -0.47446890	      8.73546396	     -7.62636219	      6.91823753	     18.73011586	      5.79662836	      4.15980636	    -68.82355302	     -1.20119760	     -8.18065607	     18.70567449	     20.34828516	     -0.50471546	      2.31940440	     -5.12327602	     -5.17640396	     -8.95173455	    -12.95384745	     27.38071117	     89.95437384	      0.00000000	      0.00000000	     -5.36310986	      9.22439424	     16.71149501	     44.90255493	     89.95437384	      0.00000000	      0.00000000
      0.44000000	     -4.52841670	     -2.04084364	      1.88071179	     -0.37172198	      0.88851512	      1.47737088	     16.18086995	      1.74942845	    -12.60089545	    -26.61021978	     -0.46443595	      9.06159818	     -7.21503176	      6.66442274	     20.31802979	      5.81041400	      4.90102656	    -69.24741173	     -1.20859533	     -5.87642597	     18.75329838	     20.18753948	     -0.58973414	      2.30054473	     -4.37061030	     -4.50809548	     -9.19031657	    -12.46897560	     28.43878104	     89.95437384	      0.00000000	      0.00000000	     -5.64143226	      8.77895654	     17.28996755	     42.92621744	     89.95437384	      0.00000000	      0.00000000
